<?xml version="1.0" standalone="no"?>
<!DOCTYPE svg PUBLIC "-//W3C//DTD SVG 1.1//EN" "http://www.w3.org/Graphics/SVG/1.1/DTD/svg11.dtd">
<!--Generator: Xara Designer (www.xara.com), SVG filter version: 6.1.0.16-->
<svg stroke-width="0.501" stroke-linejoin="bevel" fill-rule="evenodd" xmlns:xlink="http://www.w3.org/1999/xlink" xmlns="http://www.w3.org/2000/svg" version="1.1" overflow="visible" width="720pt" height="720pt" viewBox="0 0 720 720">
 <defs>
  <linearGradient id="LinearGradient" gradientUnits="userSpaceOnUse" x1="0" y1="0" x2="279.589" y2="0" gradientTransform="translate(276.131 22.622) rotate(36.7591) skewX(-16.7119)">
   <stop offset="0" stop-color="#0003ff"/>
   <stop offset="1" stop-color="#00017f"/>
  </linearGradient>
 </defs>
 <g id="Document" fill="none" stroke="black" font-family="Times New Roman" font-size="16" transform="scale(1 -1)">
  <g id="Spread" transform="translate(0 -720)">
   <g id="Layer 1">
    <g id="Group" stroke-linejoin="miter" stroke-linecap="round" stroke="none" stroke-width="0.746" stroke-miterlimit="79.8403193612775" fill="url(#LinearGradient)">
     <path d="M 121.348,0 L 121.348,130.646 L 121.346,130.651 L 121.346,373.353 L 359.994,612.001 L 598.65,373.345 L 598.65,298.797 L 598.652,298.797 L 598.652,0 L 455.459,0 L 455.459,179.997 L 264.542,179.997 L 264.542,0 L 121.348,0 Z M 358.861,239.125 C 362.405,239.125 370.365,238.618 382.754,237.61 L 386.168,237.232 L 388.25,239.32 C 384.334,276.609 382.247,325.462 381.993,385.884 C 393.497,385.884 408.604,385.193 427.308,383.802 C 437.297,383.047 442.987,382.664 444.378,382.664 L 446.271,384.94 C 445.511,393.537 445.133,400.111 445.133,404.658 C 445.133,409.97 445.511,415.72 446.271,421.911 L 444.756,423.998 C 419.094,422.1 404.149,421.059 399.91,420.87 C 395.676,420.681 389.641,420.584 381.805,420.584 C 382.187,455.851 383.892,484.166 386.923,505.53 L 385.03,507.234 C 372.765,506.473 364.546,506.096 360.377,506.096 C 355.701,506.096 348.182,506.414 337.816,507.045 L 334.969,507.234 L 333.076,505.53 C 336.236,484.673 338.005,456.358 338.383,420.584 C 329.786,420.584 324.16,420.649 321.507,420.773 L 275.243,423.998 L 273.727,421.911 C 274.488,415.337 274.865,409.587 274.865,404.658 C 274.865,402.511 274.553,395.937 273.916,384.94 L 275.62,382.664 L 292.879,383.802 C 311.459,385.193 326.561,385.884 338.194,385.884 C 338.194,368.059 337.66,344.296 336.581,314.594 C 335.508,284.888 333.895,259.798 331.749,239.32 L 333.831,237.232 C 347.357,238.494 355.701,239.125 358.861,239.125 Z M 692.998,332.997 L 359.997,666.001 L 26.997,333.001 L 0,360.001 L 359.997,720 L 719.998,359.999 L 692.998,332.997 Z" marker-start="none" marker-end="none"/>
    </g>
   </g>
  </g>
 </g>
</svg>
